<mxfile host="Electron" agent="Mozilla/5.0 (Windows NT 10.0; Win64; x64) AppleWebKit/537.36 (KHTML, like Gecko) draw.io/27.0.9 Chrome/134.0.6998.205 Electron/35.4.0 Safari/537.36" version="27.0.9">
  <diagram id="CSOYHF-YKBPySXAWQ-6L" name="vpc">
    <mxGraphModel dx="2946" dy="1506" grid="1" gridSize="10" guides="1" tooltips="1" connect="1" arrows="1" fold="1" page="1" pageScale="1" pageWidth="827" pageHeight="1169" math="0" shadow="0">
      <root>
        <mxCell id="0" />
        <mxCell id="1" parent="0" />
        <mxCell id="JRz65tElpl6HFo2sNwpc-5" value="" style="rounded=1;arcSize=10;dashed=0;fillColor=none;gradientColor=none;strokeWidth=2;" parent="1" vertex="1">
          <mxGeometry x="-20" y="120" width="1330" height="1490" as="geometry" />
        </mxCell>
        <mxCell id="JRz65tElpl6HFo2sNwpc-13" value="東京Region" style="sketch=0;outlineConnect=0;gradientColor=none;html=1;whiteSpace=wrap;fontSize=12;fontStyle=0;shape=mxgraph.aws4.group;grIcon=mxgraph.aws4.group_region;strokeColor=#879196;fillColor=none;verticalAlign=top;align=left;spacingLeft=30;fontColor=#879196;dashed=1;" parent="1" vertex="1">
          <mxGeometry x="110" y="180" width="1060" height="1380" as="geometry" />
        </mxCell>
        <mxCell id="JRz65tElpl6HFo2sNwpc-7" value="" style="rounded=1;arcSize=10;dashed=0;fillColor=none;gradientColor=none;strokeWidth=2;" parent="1" vertex="1">
          <mxGeometry x="190" y="230" width="910" height="1280" as="geometry" />
        </mxCell>
        <mxCell id="JRz65tElpl6HFo2sNwpc-25" value="Availability Zone　1a" style="fillColor=none;strokeColor=#147EBA;dashed=1;verticalAlign=top;fontStyle=0;fontColor=#147EBA;whiteSpace=wrap;html=1;" parent="1" vertex="1">
          <mxGeometry x="240" y="310" width="260" height="1140" as="geometry" />
        </mxCell>
        <mxCell id="JRz65tElpl6HFo2sNwpc-11" value="Private subnet" style="points=[[0,0],[0.25,0],[0.5,0],[0.75,0],[1,0],[1,0.25],[1,0.5],[1,0.75],[1,1],[0.75,1],[0.5,1],[0.25,1],[0,1],[0,0.75],[0,0.5],[0,0.25]];outlineConnect=0;gradientColor=none;html=1;whiteSpace=wrap;fontSize=12;fontStyle=0;container=1;pointerEvents=0;collapsible=0;recursiveResize=0;shape=mxgraph.aws4.group;grIcon=mxgraph.aws4.group_security_group;grStroke=0;strokeColor=#00A4A6;fillColor=#E6F6F7;verticalAlign=top;align=left;spacingLeft=30;fontColor=#147EBA;dashed=0;" parent="1" vertex="1">
          <mxGeometry x="253" y="979" width="240" height="215" as="geometry" />
        </mxCell>
        <mxCell id="JRz65tElpl6HFo2sNwpc-28" value="Availability Zone　1c" style="fillColor=none;strokeColor=#147EBA;dashed=1;verticalAlign=top;fontStyle=0;fontColor=#147EBA;whiteSpace=wrap;html=1;" parent="1" vertex="1">
          <mxGeometry x="514" y="313" width="270" height="1137" as="geometry" />
        </mxCell>
        <mxCell id="JRz65tElpl6HFo2sNwpc-20" value="Private subnet" style="points=[[0,0],[0.25,0],[0.5,0],[0.75,0],[1,0],[1,0.25],[1,0.5],[1,0.75],[1,1],[0.75,1],[0.5,1],[0.25,1],[0,1],[0,0.75],[0,0.5],[0,0.25]];outlineConnect=0;gradientColor=none;html=1;whiteSpace=wrap;fontSize=12;fontStyle=0;container=1;pointerEvents=0;collapsible=0;recursiveResize=0;shape=mxgraph.aws4.group;grIcon=mxgraph.aws4.group_security_group;grStroke=0;strokeColor=#00A4A6;fillColor=#E6F6F7;verticalAlign=top;align=left;spacingLeft=30;fontColor=#147EBA;dashed=0;" parent="1" vertex="1">
          <mxGeometry x="530" y="1219" width="240" height="211" as="geometry" />
        </mxCell>
        <mxCell id="3OLxCrcVThcPlZWDadXG-18" value="" style="rounded=1;arcSize=10;dashed=1;strokeColor=#ff0000;fillColor=none;gradientColor=none;dashPattern=8 4;strokeWidth=2;" vertex="1" parent="JRz65tElpl6HFo2sNwpc-20">
          <mxGeometry x="26" y="35.61999999999989" width="190" height="139.75" as="geometry" />
        </mxCell>
        <mxCell id="3OLxCrcVThcPlZWDadXG-34" value="&lt;font style=&quot;font-size: 22px;&quot;&gt;PrivateSubnet02&lt;/font&gt;" style="text;html=1;align=center;verticalAlign=middle;resizable=0;points=[];autosize=1;strokeColor=none;fillColor=none;" vertex="1" parent="JRz65tElpl6HFo2sNwpc-20">
          <mxGeometry x="21.75" y="85" width="190" height="40" as="geometry" />
        </mxCell>
        <mxCell id="JRz65tElpl6HFo2sNwpc-21" value="Private subnet" style="points=[[0,0],[0.25,0],[0.5,0],[0.75,0],[1,0],[1,0.25],[1,0.5],[1,0.75],[1,1],[0.75,1],[0.5,1],[0.25,1],[0,1],[0,0.75],[0,0.5],[0,0.25]];outlineConnect=0;gradientColor=none;html=1;whiteSpace=wrap;fontSize=12;fontStyle=0;container=1;pointerEvents=0;collapsible=0;recursiveResize=0;shape=mxgraph.aws4.group;grIcon=mxgraph.aws4.group_security_group;grStroke=0;strokeColor=#00A4A6;fillColor=#E6F6F7;verticalAlign=top;align=left;spacingLeft=30;fontColor=#147EBA;dashed=0;" parent="1" vertex="1">
          <mxGeometry x="256" y="1218" width="240" height="212" as="geometry" />
        </mxCell>
        <mxCell id="3OLxCrcVThcPlZWDadXG-17" value="" style="rounded=1;arcSize=10;dashed=1;strokeColor=#ff0000;fillColor=none;gradientColor=none;dashPattern=8 4;strokeWidth=2;" vertex="1" parent="JRz65tElpl6HFo2sNwpc-21">
          <mxGeometry x="26" y="42" width="190" height="139.75" as="geometry" />
        </mxCell>
        <mxCell id="3OLxCrcVThcPlZWDadXG-33" value="&lt;font style=&quot;font-size: 22px;&quot;&gt;PrivateSubnet02&lt;/font&gt;" style="text;html=1;align=center;verticalAlign=middle;resizable=0;points=[];autosize=1;strokeColor=none;fillColor=none;" vertex="1" parent="JRz65tElpl6HFo2sNwpc-21">
          <mxGeometry x="22.5" y="91.86999999999989" width="190" height="40" as="geometry" />
        </mxCell>
        <mxCell id="JRz65tElpl6HFo2sNwpc-23" value="Private subnet" style="points=[[0,0],[0.25,0],[0.5,0],[0.75,0],[1,0],[1,0.25],[1,0.5],[1,0.75],[1,1],[0.75,1],[0.5,1],[0.25,1],[0,1],[0,0.75],[0,0.5],[0,0.25]];outlineConnect=0;gradientColor=none;html=1;whiteSpace=wrap;fontSize=12;fontStyle=0;container=1;pointerEvents=0;collapsible=0;recursiveResize=0;shape=mxgraph.aws4.group;grIcon=mxgraph.aws4.group_security_group;grStroke=0;strokeColor=#00A4A6;fillColor=#E6F6F7;verticalAlign=top;align=left;spacingLeft=30;fontColor=#147EBA;dashed=0;" parent="1" vertex="1">
          <mxGeometry x="529" y="979" width="240" height="215" as="geometry" />
        </mxCell>
        <mxCell id="JRz65tElpl6HFo2sNwpc-29" value="Availability Zone　1d" style="fillColor=none;strokeColor=#147EBA;dashed=1;verticalAlign=top;fontStyle=0;fontColor=#147EBA;whiteSpace=wrap;html=1;" parent="1" vertex="1">
          <mxGeometry x="795" y="310" width="270" height="1140" as="geometry" />
        </mxCell>
        <mxCell id="JRz65tElpl6HFo2sNwpc-6" value="" style="dashed=0;html=1;shape=mxgraph.aws3.cloud;fillColor=#F58536;gradientColor=none;dashed=0;" parent="1" vertex="1">
          <mxGeometry x="130" y="90" width="52" height="36" as="geometry" />
        </mxCell>
        <mxCell id="JRz65tElpl6HFo2sNwpc-8" value="" style="dashed=0;html=1;shape=mxgraph.aws3.virtual_private_cloud;fillColor=#F58536;gradientColor=none;dashed=0;" parent="1" vertex="1">
          <mxGeometry x="282" y="212" width="52" height="36" as="geometry" />
        </mxCell>
        <mxCell id="JRz65tElpl6HFo2sNwpc-10" value="Public subnet" style="points=[[0,0],[0.25,0],[0.5,0],[0.75,0],[1,0],[1,0.25],[1,0.5],[1,0.75],[1,1],[0.75,1],[0.5,1],[0.25,1],[0,1],[0,0.75],[0,0.5],[0,0.25]];outlineConnect=0;gradientColor=none;html=1;whiteSpace=wrap;fontSize=12;fontStyle=0;container=1;pointerEvents=0;collapsible=0;recursiveResize=0;shape=mxgraph.aws4.group;grIcon=mxgraph.aws4.group_security_group;grStroke=0;strokeColor=#7AA116;fillColor=#F2F6E8;verticalAlign=top;align=left;spacingLeft=30;fontColor=#248814;dashed=0;" parent="1" vertex="1">
          <mxGeometry x="254" y="340" width="236" height="190" as="geometry" />
        </mxCell>
        <mxCell id="JRz65tElpl6HFo2sNwpc-12" value="Internet&#xa;gateway" style="sketch=0;outlineConnect=0;fontColor=#232F3E;gradientColor=none;strokeColor=#232F3E;fillColor=#ffffff;dashed=0;verticalLabelPosition=bottom;verticalAlign=top;align=center;html=1;fontSize=12;fontStyle=0;aspect=fixed;shape=mxgraph.aws4.resourceIcon;resIcon=mxgraph.aws4.internet_gateway;" parent="1" vertex="1">
          <mxGeometry x="615" y="200" width="60" height="60" as="geometry" />
        </mxCell>
        <mxCell id="JRz65tElpl6HFo2sNwpc-17" value="Public subnet" style="points=[[0,0],[0.25,0],[0.5,0],[0.75,0],[1,0],[1,0.25],[1,0.5],[1,0.75],[1,1],[0.75,1],[0.5,1],[0.25,1],[0,1],[0,0.75],[0,0.5],[0,0.25]];outlineConnect=0;gradientColor=none;html=1;whiteSpace=wrap;fontSize=12;fontStyle=0;container=1;pointerEvents=0;collapsible=0;recursiveResize=0;shape=mxgraph.aws4.group;grIcon=mxgraph.aws4.group_security_group;grStroke=0;strokeColor=#7AA116;fillColor=#F2F6E8;verticalAlign=top;align=left;spacingLeft=30;fontColor=#248814;dashed=0;" parent="1" vertex="1">
          <mxGeometry x="800" y="340" width="240" height="190" as="geometry" />
        </mxCell>
        <mxCell id="JRz65tElpl6HFo2sNwpc-18" value="Public subnet" style="points=[[0,0],[0.25,0],[0.5,0],[0.75,0],[1,0],[1,0.25],[1,0.5],[1,0.75],[1,1],[0.75,1],[0.5,1],[0.25,1],[0,1],[0,0.75],[0,0.5],[0,0.25]];outlineConnect=0;gradientColor=none;html=1;whiteSpace=wrap;fontSize=12;fontStyle=0;container=1;pointerEvents=0;collapsible=0;recursiveResize=0;shape=mxgraph.aws4.group;grIcon=mxgraph.aws4.group_security_group;grStroke=0;strokeColor=#7AA116;fillColor=#F2F6E8;verticalAlign=top;align=left;spacingLeft=30;fontColor=#248814;dashed=0;" parent="1" vertex="1">
          <mxGeometry x="530" y="340" width="240" height="190" as="geometry" />
        </mxCell>
        <mxCell id="3OLxCrcVThcPlZWDadXG-5" value="" style="rounded=1;arcSize=10;dashed=1;strokeColor=#ff0000;fillColor=none;gradientColor=none;dashPattern=8 4;strokeWidth=2;" vertex="1" parent="JRz65tElpl6HFo2sNwpc-18">
          <mxGeometry x="22.25" y="30.25" width="199.5" height="139.75" as="geometry" />
        </mxCell>
        <mxCell id="3OLxCrcVThcPlZWDadXG-22" value="&lt;font style=&quot;font-size: 22px;&quot;&gt;PublicSubnet01&lt;/font&gt;" style="text;html=1;align=center;verticalAlign=middle;resizable=0;points=[];autosize=1;strokeColor=none;fillColor=none;" vertex="1" parent="JRz65tElpl6HFo2sNwpc-18">
          <mxGeometry x="31.75" y="80.13" width="180" height="40" as="geometry" />
        </mxCell>
        <mxCell id="JRz65tElpl6HFo2sNwpc-19" value="Private subnet" style="points=[[0,0],[0.25,0],[0.5,0],[0.75,0],[1,0],[1,0.25],[1,0.5],[1,0.75],[1,1],[0.75,1],[0.5,1],[0.25,1],[0,1],[0,0.75],[0,0.5],[0,0.25]];outlineConnect=0;gradientColor=none;html=1;whiteSpace=wrap;fontSize=12;fontStyle=0;container=1;pointerEvents=0;collapsible=0;recursiveResize=0;shape=mxgraph.aws4.group;grIcon=mxgraph.aws4.group_security_group;grStroke=0;strokeColor=#00A4A6;fillColor=#E6F6F7;verticalAlign=top;align=left;spacingLeft=30;fontColor=#147EBA;dashed=0;" parent="1" vertex="1">
          <mxGeometry x="811" y="1218" width="240" height="212" as="geometry" />
        </mxCell>
        <mxCell id="JRz65tElpl6HFo2sNwpc-22" value="Private subnet" style="points=[[0,0],[0.25,0],[0.5,0],[0.75,0],[1,0],[1,0.25],[1,0.5],[1,0.75],[1,1],[0.75,1],[0.5,1],[0.25,1],[0,1],[0,0.75],[0,0.5],[0,0.25]];outlineConnect=0;gradientColor=none;html=1;whiteSpace=wrap;fontSize=12;fontStyle=0;container=1;pointerEvents=0;collapsible=0;recursiveResize=0;shape=mxgraph.aws4.group;grIcon=mxgraph.aws4.group_security_group;grStroke=0;strokeColor=#00A4A6;fillColor=#E6F6F7;verticalAlign=top;align=left;spacingLeft=30;fontColor=#147EBA;dashed=0;" parent="1" vertex="1">
          <mxGeometry x="809" y="979" width="240" height="215" as="geometry" />
        </mxCell>
        <mxCell id="3OLxCrcVThcPlZWDadXG-16" value="" style="rounded=1;arcSize=10;dashed=1;strokeColor=#ff0000;fillColor=none;gradientColor=none;dashPattern=8 4;strokeWidth=2;" vertex="1" parent="JRz65tElpl6HFo2sNwpc-22">
          <mxGeometry x="25" y="37.629999999999995" width="190" height="139.75" as="geometry" />
        </mxCell>
        <mxCell id="3OLxCrcVThcPlZWDadXG-31" value="&lt;font style=&quot;font-size: 22px;&quot;&gt;PrivateSubnet01&lt;/font&gt;" style="text;html=1;align=center;verticalAlign=middle;resizable=0;points=[];autosize=1;strokeColor=none;fillColor=none;" vertex="1" parent="JRz65tElpl6HFo2sNwpc-22">
          <mxGeometry x="28.75" y="91" width="190" height="40" as="geometry" />
        </mxCell>
        <mxCell id="JRz65tElpl6HFo2sNwpc-30" value="Public subnet" style="points=[[0,0],[0.25,0],[0.5,0],[0.75,0],[1,0],[1,0.25],[1,0.5],[1,0.75],[1,1],[0.75,1],[0.5,1],[0.25,1],[0,1],[0,0.75],[0,0.5],[0,0.25]];outlineConnect=0;gradientColor=none;html=1;whiteSpace=wrap;fontSize=12;fontStyle=0;container=1;pointerEvents=0;collapsible=0;recursiveResize=0;shape=mxgraph.aws4.group;grIcon=mxgraph.aws4.group_security_group;grStroke=0;strokeColor=#7AA116;fillColor=#F2F6E8;verticalAlign=top;align=left;spacingLeft=30;fontColor=#248814;dashed=0;" parent="1" vertex="1">
          <mxGeometry x="256" y="543" width="234" height="200" as="geometry" />
        </mxCell>
        <mxCell id="3OLxCrcVThcPlZWDadXG-8" value="" style="rounded=1;arcSize=10;dashed=1;strokeColor=#ff0000;fillColor=none;gradientColor=none;dashPattern=8 4;strokeWidth=2;" vertex="1" parent="JRz65tElpl6HFo2sNwpc-30">
          <mxGeometry x="26" y="42" width="190" height="139.75" as="geometry" />
        </mxCell>
        <mxCell id="3OLxCrcVThcPlZWDadXG-24" value="&lt;font style=&quot;font-size: 22px;&quot;&gt;PublicSubnet02&lt;/font&gt;" style="text;html=1;align=center;verticalAlign=middle;resizable=0;points=[];autosize=1;strokeColor=none;fillColor=none;" vertex="1" parent="JRz65tElpl6HFo2sNwpc-30">
          <mxGeometry x="35" y="91.87" width="180" height="40" as="geometry" />
        </mxCell>
        <mxCell id="JRz65tElpl6HFo2sNwpc-31" value="Public subnet" style="points=[[0,0],[0.25,0],[0.5,0],[0.75,0],[1,0],[1,0.25],[1,0.5],[1,0.75],[1,1],[0.75,1],[0.5,1],[0.25,1],[0,1],[0,0.75],[0,0.5],[0,0.25]];outlineConnect=0;gradientColor=none;html=1;whiteSpace=wrap;fontSize=12;fontStyle=0;container=1;pointerEvents=0;collapsible=0;recursiveResize=0;shape=mxgraph.aws4.group;grIcon=mxgraph.aws4.group_security_group;grStroke=0;strokeColor=#7AA116;fillColor=#F2F6E8;verticalAlign=top;align=left;spacingLeft=30;fontColor=#248814;dashed=0;" parent="1" vertex="1">
          <mxGeometry x="802" y="543" width="240" height="200" as="geometry" />
        </mxCell>
        <mxCell id="3OLxCrcVThcPlZWDadXG-10" value="" style="rounded=1;arcSize=10;dashed=1;strokeColor=#ff0000;fillColor=none;gradientColor=none;dashPattern=8 4;strokeWidth=2;" vertex="1" parent="JRz65tElpl6HFo2sNwpc-31">
          <mxGeometry x="23" y="42" width="190" height="139.75" as="geometry" />
        </mxCell>
        <mxCell id="3OLxCrcVThcPlZWDadXG-25" value="&lt;font style=&quot;font-size: 22px;&quot;&gt;PublicSubnet02&lt;/font&gt;" style="text;html=1;align=center;verticalAlign=middle;resizable=0;points=[];autosize=1;strokeColor=none;fillColor=none;" vertex="1" parent="JRz65tElpl6HFo2sNwpc-31">
          <mxGeometry x="23" y="91.87" width="180" height="40" as="geometry" />
        </mxCell>
        <mxCell id="JRz65tElpl6HFo2sNwpc-32" value="Public subnet" style="points=[[0,0],[0.25,0],[0.5,0],[0.75,0],[1,0],[1,0.25],[1,0.5],[1,0.75],[1,1],[0.75,1],[0.5,1],[0.25,1],[0,1],[0,0.75],[0,0.5],[0,0.25]];outlineConnect=0;gradientColor=none;html=1;whiteSpace=wrap;fontSize=12;fontStyle=0;container=1;pointerEvents=0;collapsible=0;recursiveResize=0;shape=mxgraph.aws4.group;grIcon=mxgraph.aws4.group_security_group;grStroke=0;strokeColor=#7AA116;fillColor=#F2F6E8;verticalAlign=top;align=left;spacingLeft=30;fontColor=#248814;dashed=0;" parent="1" vertex="1">
          <mxGeometry x="532" y="543" width="238" height="200" as="geometry" />
        </mxCell>
        <mxCell id="3OLxCrcVThcPlZWDadXG-2" value="Public subnet" style="points=[[0,0],[0.25,0],[0.5,0],[0.75,0],[1,0],[1,0.25],[1,0.5],[1,0.75],[1,1],[0.75,1],[0.5,1],[0.25,1],[0,1],[0,0.75],[0,0.5],[0,0.25]];outlineConnect=0;gradientColor=none;html=1;whiteSpace=wrap;fontSize=12;fontStyle=0;container=1;pointerEvents=0;collapsible=0;recursiveResize=0;shape=mxgraph.aws4.group;grIcon=mxgraph.aws4.group_security_group;grStroke=0;strokeColor=#7AA116;fillColor=#F2F6E8;verticalAlign=top;align=left;spacingLeft=30;fontColor=#248814;dashed=0;" vertex="1" parent="1">
          <mxGeometry x="257" y="760" width="233" height="200" as="geometry" />
        </mxCell>
        <mxCell id="3OLxCrcVThcPlZWDadXG-11" value="" style="rounded=1;arcSize=10;dashed=1;strokeColor=#ff0000;fillColor=none;gradientColor=none;dashPattern=8 4;strokeWidth=2;" vertex="1" parent="3OLxCrcVThcPlZWDadXG-2">
          <mxGeometry x="21.5" y="40.129999999999995" width="190" height="139.75" as="geometry" />
        </mxCell>
        <mxCell id="3OLxCrcVThcPlZWDadXG-27" value="&lt;font style=&quot;font-size: 22px;&quot;&gt;PublicSubnet03&lt;/font&gt;" style="text;html=1;align=center;verticalAlign=middle;resizable=0;points=[];autosize=1;strokeColor=none;fillColor=none;" vertex="1" parent="3OLxCrcVThcPlZWDadXG-2">
          <mxGeometry x="29" y="90.00999999999999" width="180" height="40" as="geometry" />
        </mxCell>
        <mxCell id="3OLxCrcVThcPlZWDadXG-3" value="Public subnet" style="points=[[0,0],[0.25,0],[0.5,0],[0.75,0],[1,0],[1,0.25],[1,0.5],[1,0.75],[1,1],[0.75,1],[0.5,1],[0.25,1],[0,1],[0,0.75],[0,0.5],[0,0.25]];outlineConnect=0;gradientColor=none;html=1;whiteSpace=wrap;fontSize=12;fontStyle=0;container=1;pointerEvents=0;collapsible=0;recursiveResize=0;shape=mxgraph.aws4.group;grIcon=mxgraph.aws4.group_security_group;grStroke=0;strokeColor=#7AA116;fillColor=#F2F6E8;verticalAlign=top;align=left;spacingLeft=30;fontColor=#248814;dashed=0;" vertex="1" parent="1">
          <mxGeometry x="803" y="760" width="240" height="200" as="geometry" />
        </mxCell>
        <mxCell id="3OLxCrcVThcPlZWDadXG-13" value="" style="rounded=1;arcSize=10;dashed=1;strokeColor=#ff0000;fillColor=none;gradientColor=none;dashPattern=8 4;strokeWidth=2;" vertex="1" parent="3OLxCrcVThcPlZWDadXG-3">
          <mxGeometry x="33" y="40.129999999999995" width="190" height="139.75" as="geometry" />
        </mxCell>
        <mxCell id="3OLxCrcVThcPlZWDadXG-29" value="&lt;font style=&quot;font-size: 22px;&quot;&gt;PublicSubnet03&lt;/font&gt;" style="text;html=1;align=center;verticalAlign=middle;resizable=0;points=[];autosize=1;strokeColor=none;fillColor=none;" vertex="1" parent="3OLxCrcVThcPlZWDadXG-3">
          <mxGeometry x="34.75" y="85.00999999999999" width="180" height="40" as="geometry" />
        </mxCell>
        <mxCell id="3OLxCrcVThcPlZWDadXG-4" value="Public subnet" style="points=[[0,0],[0.25,0],[0.5,0],[0.75,0],[1,0],[1,0.25],[1,0.5],[1,0.75],[1,1],[0.75,1],[0.5,1],[0.25,1],[0,1],[0,0.75],[0,0.5],[0,0.25]];outlineConnect=0;gradientColor=none;html=1;whiteSpace=wrap;fontSize=12;fontStyle=0;container=1;pointerEvents=0;collapsible=0;recursiveResize=0;shape=mxgraph.aws4.group;grIcon=mxgraph.aws4.group_security_group;grStroke=0;strokeColor=#7AA116;fillColor=#F2F6E8;verticalAlign=top;align=left;spacingLeft=30;fontColor=#248814;dashed=0;" vertex="1" parent="1">
          <mxGeometry x="533" y="760" width="238" height="200" as="geometry" />
        </mxCell>
        <mxCell id="3OLxCrcVThcPlZWDadXG-12" value="" style="rounded=1;arcSize=10;dashed=1;strokeColor=#ff0000;fillColor=none;gradientColor=none;dashPattern=8 4;strokeWidth=2;" vertex="1" parent="3OLxCrcVThcPlZWDadXG-4">
          <mxGeometry x="28.75" y="35.129999999999995" width="190" height="139.75" as="geometry" />
        </mxCell>
        <mxCell id="3OLxCrcVThcPlZWDadXG-28" value="&lt;font style=&quot;font-size: 22px;&quot;&gt;PublicSubnet03&lt;/font&gt;" style="text;html=1;align=center;verticalAlign=middle;resizable=0;points=[];autosize=1;strokeColor=none;fillColor=none;" vertex="1" parent="3OLxCrcVThcPlZWDadXG-4">
          <mxGeometry x="38.75" y="90.00999999999999" width="180" height="40" as="geometry" />
        </mxCell>
        <mxCell id="3OLxCrcVThcPlZWDadXG-6" value="" style="rounded=1;arcSize=10;dashed=1;strokeColor=#ff0000;fillColor=none;gradientColor=none;dashPattern=8 4;strokeWidth=2;" vertex="1" parent="1">
          <mxGeometry x="280" y="370.25" width="190" height="139.75" as="geometry" />
        </mxCell>
        <mxCell id="3OLxCrcVThcPlZWDadXG-7" value="" style="rounded=1;arcSize=10;dashed=1;strokeColor=#ff0000;fillColor=none;gradientColor=none;dashPattern=8 4;strokeWidth=2;" vertex="1" parent="1">
          <mxGeometry x="823.25" y="370.25" width="199.5" height="139.75" as="geometry" />
        </mxCell>
        <mxCell id="3OLxCrcVThcPlZWDadXG-9" value="" style="rounded=1;arcSize=10;dashed=1;strokeColor=#ff0000;fillColor=none;gradientColor=none;dashPattern=8 4;strokeWidth=2;" vertex="1" parent="1">
          <mxGeometry x="557" y="585" width="190" height="139.75" as="geometry" />
        </mxCell>
        <mxCell id="3OLxCrcVThcPlZWDadXG-14" value="" style="rounded=1;arcSize=10;dashed=1;strokeColor=#ff0000;fillColor=none;gradientColor=none;dashPattern=8 4;strokeWidth=2;" vertex="1" parent="1">
          <mxGeometry x="281" y="1016.63" width="190" height="139.75" as="geometry" />
        </mxCell>
        <mxCell id="3OLxCrcVThcPlZWDadXG-15" value="" style="rounded=1;arcSize=10;dashed=1;strokeColor=#ff0000;fillColor=none;gradientColor=none;dashPattern=8 4;strokeWidth=2;" vertex="1" parent="1">
          <mxGeometry x="557" y="1016.63" width="190" height="139.75" as="geometry" />
        </mxCell>
        <mxCell id="3OLxCrcVThcPlZWDadXG-19" value="" style="rounded=1;arcSize=10;dashed=1;strokeColor=#ff0000;fillColor=none;gradientColor=none;dashPattern=8 4;strokeWidth=2;" vertex="1" parent="1">
          <mxGeometry x="832.75" y="1260" width="190" height="139.75" as="geometry" />
        </mxCell>
        <mxCell id="3OLxCrcVThcPlZWDadXG-21" value="&lt;font style=&quot;font-size: 22px;&quot;&gt;PublicSubnet01&lt;/font&gt;" style="text;html=1;align=center;verticalAlign=middle;resizable=0;points=[];autosize=1;strokeColor=none;fillColor=none;" vertex="1" parent="1">
          <mxGeometry x="291" y="415" width="180" height="40" as="geometry" />
        </mxCell>
        <mxCell id="3OLxCrcVThcPlZWDadXG-23" value="&lt;font style=&quot;font-size: 22px;&quot;&gt;PublicSubnet01&lt;/font&gt;" style="text;html=1;align=center;verticalAlign=middle;resizable=0;points=[];autosize=1;strokeColor=none;fillColor=none;" vertex="1" parent="1">
          <mxGeometry x="833" y="420.13" width="180" height="40" as="geometry" />
        </mxCell>
        <mxCell id="3OLxCrcVThcPlZWDadXG-26" value="&lt;font style=&quot;font-size: 22px;&quot;&gt;PublicSubnet02&lt;/font&gt;" style="text;html=1;align=center;verticalAlign=middle;resizable=0;points=[];autosize=1;strokeColor=none;fillColor=none;" vertex="1" parent="1">
          <mxGeometry x="559" y="634.87" width="180" height="40" as="geometry" />
        </mxCell>
        <mxCell id="3OLxCrcVThcPlZWDadXG-30" value="&lt;font style=&quot;font-size: 22px;&quot;&gt;PrivateSubnet01&lt;/font&gt;" style="text;html=1;align=center;verticalAlign=middle;resizable=0;points=[];autosize=1;strokeColor=none;fillColor=none;" vertex="1" parent="1">
          <mxGeometry x="275" y="1066.5" width="190" height="40" as="geometry" />
        </mxCell>
        <mxCell id="3OLxCrcVThcPlZWDadXG-32" value="&lt;font style=&quot;font-size: 22px;&quot;&gt;PrivateSubnet01&lt;/font&gt;" style="text;html=1;align=center;verticalAlign=middle;resizable=0;points=[];autosize=1;strokeColor=none;fillColor=none;" vertex="1" parent="1">
          <mxGeometry x="559" y="1066.51" width="190" height="40" as="geometry" />
        </mxCell>
        <mxCell id="3OLxCrcVThcPlZWDadXG-35" value="&lt;font style=&quot;font-size: 22px;&quot;&gt;PrivateSubnet02&lt;/font&gt;" style="text;html=1;align=center;verticalAlign=middle;resizable=0;points=[];autosize=1;strokeColor=none;fillColor=none;" vertex="1" parent="1">
          <mxGeometry x="828" y="1320" width="190" height="40" as="geometry" />
        </mxCell>
      </root>
    </mxGraphModel>
  </diagram>
</mxfile>
